<svg width="16" height="16" viewBox="0 0 16 16" fill="none" xmlns="http://www.w3.org/2000/svg">
<path fill-rule="evenodd" clip-rule="evenodd" d="M1.5 2V5.5L2 6H5.5V5H2.979L3.92 4.059C4.24853 3.72338 4.64035 3.45624 5.07279 3.27305C5.50524 3.08985 5.96972 2.99423 6.43936 2.99172C6.909 2.98921 7.37447 3.07987 7.80885 3.25843C8.24323 3.437 8.63788 3.69994 8.96997 4.03203C9.30206 4.36412 9.565 4.75877 9.74357 5.19315C9.92213 5.62753 10.0128 6.093 10.0103 6.56264C10.0078 7.03228 9.91215 7.49677 9.72895 7.92921C9.54576 8.36165 9.27862 8.75347 8.943 9.082L3.746 14.28L4.466 15L9.664 9.802C10.521 8.94482 11.0025 7.78229 11.0024 6.57015C11.0023 5.35801 10.5207 4.19555 9.6635 3.3385C8.80632 2.48145 7.64379 2.00002 6.43165 2.00012C5.2195 2.00021 4.05705 2.48182 3.2 3.339L2.5 4.039V2H1.5Z" fill="#E34F27"/>
</svg>
