<svg width="24" height="24" viewBox="0 0 24 24" fill="none" xmlns="http://www.w3.org/2000/svg">
<g clip-path="url(#clip0_4119_1249)">
<path fill-rule="evenodd" clip-rule="evenodd" d="M9 3.75H19.5C19.6989 3.75 19.8897 3.82902 20.0303 3.96967C20.171 4.11032 20.25 4.30109 20.25 4.5V19.5C20.25 19.6989 20.171 19.8897 20.0303 20.0303C19.8897 20.171 19.6989 20.25 19.5 20.25H9V3.75ZM6.75 3.75H4.5C4.30109 3.75 4.11032 3.82902 3.96967 3.96967C3.82902 4.11032 3.75 4.30109 3.75 4.5V19.5C3.75 19.6989 3.82902 19.8897 3.96967 20.0303C4.11032 20.171 4.30109 20.25 4.5 20.25H6.75V3.75ZM1.5 4.5C1.5 3.70435 1.81607 2.94129 2.37868 2.37868C2.94129 1.81607 3.70435 1.5 4.5 1.5H19.5C20.2956 1.5 21.0587 1.81607 21.6213 2.37868C22.1839 2.94129 22.5 3.70435 22.5 4.5V19.5C22.5 20.2956 22.1839 21.0587 21.6213 21.6213C21.0587 22.1839 20.2956 22.5 19.5 22.5H4.5C3.70435 22.5 2.94129 22.1839 2.37868 21.6213C1.81607 21.0587 1.5 20.2956 1.5 19.5V4.5Z" fill="#273369"/>
<path d="M13.1964 15.1118L15.8734 12.4348C15.9354 12.3728 15.9831 12.3061 16.0164 12.2348C16.0497 12.1635 16.0661 12.0851 16.0654 11.9998C16.0647 11.9145 16.0481 11.8361 16.0154 11.7648C15.9827 11.6935 15.9351 11.6268 15.8724 11.5648L13.1954 8.88781C13.1581 8.85114 13.1151 8.82015 13.0664 8.79481C13.0177 8.77015 12.9654 8.75781 12.9094 8.75781C12.7974 8.75781 12.7011 8.79448 12.6204 8.86781C12.5397 8.94248 12.4994 9.04015 12.4994 9.16081V14.8378C12.4994 14.9591 12.5407 15.0568 12.6234 15.1308C12.7061 15.2048 12.8021 15.2418 12.9114 15.2418C12.9394 15.2418 13.0341 15.1985 13.1954 15.1118" fill="#273369"/>
</g>
<defs>
<clipPath id="clip0_4119_1249">
<rect width="24" height="24" fill="white"/>
</clipPath>
</defs>
</svg>
